<mxfile host="app.diagrams.net" modified="2024-04-26T12:36:32.305Z" agent="Mozilla/5.0 (Windows NT 10.0; Win64; x64; rv:125.0) Gecko/20100101 Firefox/125.0" etag="HRS8ubZ5VRC8Rxzu_tZD" version="24.3.0" type="github">
  <diagram name="Page-1" id="9f46799a-70d6-7492-0946-bef42562c5a5">
    <mxGraphModel dx="1232" dy="1141" grid="1" gridSize="10" guides="1" tooltips="1" connect="1" arrows="1" fold="1" page="1" pageScale="1" pageWidth="1100" pageHeight="850" background="none" math="0" shadow="0">
      <root>
        <mxCell id="0" />
        <mxCell id="1" parent="0" />
        <mxCell id="0s52j0iCRRlU9yB-W3LT-1" value="&lt;div&gt;timer einstellen:&amp;nbsp; 15 / 30 / 60 / 90 min&lt;/div&gt;&lt;div&gt;pause einstellen: 15 / 30 min&lt;br&gt;&lt;/div&gt;" style="rounded=0;whiteSpace=wrap;html=1;" vertex="1" parent="1">
          <mxGeometry x="90" y="60" width="270" height="550" as="geometry" />
        </mxCell>
        <mxCell id="0s52j0iCRRlU9yB-W3LT-2" value="&lt;div&gt;timer, mit sound, &lt;br&gt;&lt;/div&gt;&lt;div&gt;https://www.hubermanlab.com/newsletter/teach-and-learn-better-with-a-neuroplasticity-super-protocol&lt;/div&gt;&lt;div&gt;&lt;br&gt;&lt;/div&gt;" style="rounded=0;whiteSpace=wrap;html=1;" vertex="1" parent="1">
          <mxGeometry x="600" y="40" width="390" height="210" as="geometry" />
        </mxCell>
        <mxCell id="0s52j0iCRRlU9yB-W3LT-3" value="&lt;div&gt;Start Seite:&lt;/div&gt;&lt;div&gt;select&amp;nbsp; Time:&lt;/div&gt;&lt;div&gt;30 / 60 / 90&lt;/div&gt;&lt;div&gt;get Pause:&amp;nbsp;&lt;/div&gt;&lt;div&gt;&amp;nbsp;10 / 20 / 30&lt;/div&gt;&lt;div&gt;Breathe &lt;br&gt;&lt;/div&gt;&lt;div&gt;tap --30&lt;/div&gt;&lt;div&gt;get focus&lt;/div&gt;&lt;div&gt;60 &lt;br&gt;&lt;/div&gt;&lt;div&gt;&lt;br&gt;&lt;/div&gt;&lt;div&gt;random break &lt;br&gt;&lt;/div&gt;&lt;div&gt;1 - 2 10&lt;/div&gt;&lt;div&gt;&lt;br&gt;&lt;/div&gt;&lt;div&gt;long break:&lt;/div&gt;&lt;div&gt;&lt;br&gt;&lt;/div&gt;&lt;div&gt;&lt;br&gt;&lt;/div&gt;&lt;div&gt;&lt;br&gt;&lt;/div&gt;&lt;div&gt;&lt;br&gt;&lt;/div&gt;&lt;div&gt;&lt;br&gt;&lt;/div&gt;&lt;div&gt;40hz sound white/brown noise&lt;br&gt;&lt;/div&gt;" style="rounded=0;whiteSpace=wrap;html=1;" vertex="1" parent="1">
          <mxGeometry x="400" y="263" width="270" height="550" as="geometry" />
        </mxCell>
        <mxCell id="0s52j0iCRRlU9yB-W3LT-4" value="APP" style="rounded=0;whiteSpace=wrap;html=1;" vertex="1" parent="1">
          <mxGeometry x="500" y="920" width="120" height="60" as="geometry" />
        </mxCell>
        <mxCell id="0s52j0iCRRlU9yB-W3LT-5" value="Timer" style="rounded=0;whiteSpace=wrap;html=1;" vertex="1" parent="1">
          <mxGeometry x="600" y="1000" width="120" height="60" as="geometry" />
        </mxCell>
        <mxCell id="0s52j0iCRRlU9yB-W3LT-6" value="Settings" style="rounded=0;whiteSpace=wrap;html=1;" vertex="1" parent="1">
          <mxGeometry x="360" y="1000" width="120" height="60" as="geometry" />
        </mxCell>
      </root>
    </mxGraphModel>
  </diagram>
</mxfile>
